<?xml version="1.0" ?>
<svg xmlns="http://www.w3.org/2000/svg" version="1.1" width="1024" height="1024">
	<g stroke-linecap="butt" vector-effect="non-scaling-stroke" fill="none">
		<path stroke="#FEFEFE" d="M 636.00,257.67 L 636.17,257.50 C 636.26,257.41 636.63,256.51 637.00,255.50 L 637.67,253.67"/>
		<path stroke="#E9474D" d="M 636.00,257.67 L 635.33,259.50 C 631.94,268.83 622.58,284.11 612.67,296.50 C 592.64,321.53 560.30,350.02 525.83,373.00 C 517.56,378.52 515.75,379.33 511.83,379.33 C 506.79,379.33 505.70,378.73 487.67,366.00 C 441.89,333.69 406.29,296.73 391.50,266.17 C 375.99,234.10 376.96,205.08 394.33,181.50 C 404.52,167.68 420.67,157.82 437.50,155.17 C 441.81,154.49 454.85,154.49 459.17,155.17 C 478.97,158.29 495.20,169.19 506.83,187.17 C 507.84,188.72 509.34,191.58 510.17,193.50 C 511.53,196.68 512.33,197.79 512.33,196.50 C 512.33,194.05 520.22,181.66 525.17,176.33 C 535.46,165.25 549.87,157.42 564.17,155.17 C 568.48,154.49 581.52,154.49 585.83,155.17 C 611.39,159.20 631.85,176.82 639.83,201.67 C 645.01,217.77 644.50,234.88 638.33,251.83 L 637.67,253.67"/>
		<path stroke="#E65754" d="M 636.00,257.67 L 635.33,256.83 C 633.87,255.00 634.49,251.27 636.17,251.83 C 636.44,251.92 636.89,252.37 637.17,252.83 L 637.67,253.67"/>
		<path stroke="#FEFEFE" d="M 386.67,306.50 C 383.46,307.70 380.88,311.86 381.17,315.33 C 381.53,319.72 388.09,328.85 392.17,330.67 C 399.22,333.80 406.70,327.34 404.50,320.00 C 403.22,315.73 396.30,307.13 393.50,306.33 C 391.78,305.84 388.18,305.93 386.67,306.50"/>
		<path stroke="#FEFEFE" d="M 614.50,325.67 C 611.69,326.79 605.25,333.03 604.00,335.83 C 600.49,343.74 607.18,351.24 615.17,348.33 C 617.47,347.50 624.58,340.61 625.67,338.17 C 628.38,332.06 624.10,325.33 617.50,325.33 C 616.31,325.33 614.96,325.48 614.50,325.67"/>
		<path stroke="#FEFEFE" d="M 414.17,339.33 C 408.94,341.42 406.79,346.58 409.17,351.33 C 410.67,354.34 420.62,363.83 430.83,372.00 C 449.15,386.66 459.82,398.34 467.50,412.17 C 471.31,419.02 473.37,420.67 478.17,420.67 C 483.65,420.67 486.97,416.95 486.50,411.33 C 485.98,405.10 471.23,383.82 460.17,373.33 C 456.64,369.99 451.18,365.26 447.67,362.50 C 443.07,358.89 436.30,353.13 429.83,347.33 C 421.01,339.43 421.02,339.43 417.33,339.17 C 416.05,339.08 414.63,339.15 414.17,339.33"/>
		<path stroke="#FEFEFE" d="M 585.33,354.67 C 581.24,356.71 557.57,379.34 551.50,387.00 C 529.25,415.11 518.34,443.93 514.67,484.33 C 513.65,495.50 514.70,499.20 519.50,501.33 C 524.20,503.42 530.23,500.82 531.50,496.17 C 531.78,495.16 532.07,492.83 532.17,491.00 C 534.08,452.77 545.92,420.68 567.17,396.17 C 572.01,390.58 580.44,382.29 587.17,376.50 C 598.08,367.11 598.00,367.21 598.00,362.33 C 598.00,356.56 595.11,353.67 589.33,353.67 C 587.78,353.67 586.89,353.89 585.33,354.67"/>
		<path stroke="#FEFEFE" d="M 594.67,394.50 C 587.74,396.23 569.43,416.80 563.50,429.50 C 561.32,434.17 561.94,438.11 565.33,441.17 C 568.66,444.16 573.67,444.16 577.00,441.17 C 578.24,440.05 579.26,438.57 581.00,435.33 C 585.98,426.09 589.93,421.31 601.00,411.17 C 606.04,406.54 606.69,401.02 602.67,397.00 C 600.50,394.83 597.32,393.84 594.67,394.50"/>
		<path stroke="#FEFEFE" d="M 516.17,394.83 C 512.70,395.53 510.37,397.86 507.83,403.17 C 505.10,408.89 505.28,412.28 508.50,415.50 C 511.92,418.92 517.96,418.92 521.00,415.50 C 523.88,412.26 526.33,406.97 526.33,404.00 C 526.33,398.54 521.13,393.84 516.17,394.83"/>
		<path stroke="#FEFEFE" d="M 428.50,396.00 C 423.46,398.02 420.91,403.80 423.00,408.50 C 423.88,410.49 429.79,416.39 432.00,417.50 C 436.39,419.69 441.68,417.98 443.83,413.67 C 444.92,411.49 445.00,407.75 444.00,405.50 C 443.11,403.50 437.17,397.56 435.17,396.67 C 433.43,395.89 429.70,395.52 428.50,396.00"/>
		<path stroke="#FEFEFE" d="M 491.67,428.33 C 487.40,429.75 484.95,434.80 486.17,439.67 C 486.94,442.76 489.55,448.53 490.83,450.00 C 496.47,456.44 506.67,453.12 506.67,444.83 C 506.67,439.19 501.56,429.74 497.83,428.50 C 496.12,427.93 493.12,427.85 491.67,428.33"/>
		<path stroke="#FEFEFE" d="M 465.50,449.67 C 458.94,452.29 458.04,458.15 462.67,468.17 C 464.98,473.17 469.59,475.03 474.67,473.00 C 479.00,471.27 480.82,466.85 479.33,461.67 C 476.80,452.79 473.81,449.33 468.67,449.33 C 467.38,449.33 465.96,449.48 465.50,449.67"/>
		<path stroke="#FEFEFE" d="M 555.67,458.33 C 551.35,459.77 548.18,465.85 547.50,474.00 C 546.84,481.86 554.96,486.69 561.50,482.33 C 563.45,481.03 564.36,479.17 565.83,473.50 C 567.63,466.57 567.40,464.02 564.67,460.83 C 562.81,458.67 558.37,457.43 555.67,458.33"/>
		<path stroke="#FEFEFE" d="M 488.83,493.33 C 482.90,495.70 481.25,500.61 483.17,510.17 C 484.28,515.75 487.08,518.33 492.00,518.33 C 495.47,518.33 498.57,516.52 500.00,513.67 C 501.18,511.30 500.76,501.71 499.33,498.50 C 497.84,495.14 495.46,493.45 491.83,493.17 C 490.64,493.07 489.29,493.15 488.83,493.33"/>
		<path stroke="#FEFEFE" d="M 549.17,501.83 C 544.60,503.79 542.67,508.45 543.17,516.33 C 543.54,522.31 546.95,525.54 552.50,525.17 C 556.39,524.91 559.23,523.13 560.50,520.17 C 561.32,518.24 561.20,508.46 560.33,506.50 C 558.58,502.56 552.95,500.21 549.17,501.83"/>
		<path stroke="#FEFEFE" d="M 537.53,538.05 C 580.46,552.17 603.80,598.45 589.66,641.43 C 575.53,684.41 529.27,707.80 486.34,693.68 C 443.42,679.56 420.08,633.28 434.21,590.30 C 448.35,547.33 494.61,523.93 537.53,538.05"/>
		<path stroke="#FEFEFE" d="M 620.67,696.50 C 614.54,698.03 612.25,699.18 596.17,708.83 C 589.29,712.96 578.12,719.56 571.33,723.50 C 564.55,727.44 559.00,730.82 559.00,731.00 C 559.00,731.20 560.61,731.33 563.17,731.33 C 570.07,731.33 575.85,732.98 581.83,736.67 L 584.00,738.00 L 594.50,732.00 C 625.82,714.11 641.70,704.96 642.00,704.67 C 642.95,703.72 637.52,699.46 633.50,698.00 C 629.55,696.56 623.33,695.84 620.67,696.50"/>
		<path stroke="#FEFEFE" d="M 676.17,702.67 C 670.37,703.72 664.77,706.68 630.67,726.67 C 625.35,729.78 617.03,734.58 612.17,737.33 C 607.31,740.08 601.31,743.53 598.83,745.00 C 596.36,746.47 594.18,747.74 594.00,747.83 C 593.81,747.93 594.18,748.88 594.83,750.00 C 597.31,754.25 599.17,759.69 599.50,763.67 C 599.59,764.77 599.74,765.67 599.83,765.67 C 600.07,765.67 612.71,759.18 625.17,752.67 C 631.13,749.55 642.68,743.55 650.83,739.33 C 658.99,735.12 667.62,730.62 670.00,729.33 C 672.38,728.05 678.23,724.98 683.00,722.50 C 687.77,720.02 693.54,717.02 695.83,715.83 L 700.00,713.67 L 699.33,712.33 C 696.05,705.78 684.83,701.09 676.17,702.67"/>
		<path stroke="#FEFEFE" d="M 386.00,714.50 C 385.45,714.59 383.13,714.89 380.83,715.17 C 367.38,716.78 352.25,721.82 339.33,729.00 C 337.68,729.92 331.76,733.22 326.17,736.33 C 320.58,739.45 313.83,743.20 311.17,744.67 C 308.51,746.13 303.11,749.13 299.17,751.33 C 295.22,753.53 289.90,756.46 287.33,757.83 C 278.53,762.55 274.91,768.35 276.00,776.00 C 276.56,779.93 277.25,781.53 282.00,789.83 C 284.25,793.77 287.47,799.68 290.17,804.83 C 291.17,806.76 294.47,812.83 297.50,818.33 C 300.53,823.83 305.40,832.83 308.33,838.33 C 315.43,851.64 317.36,853.67 324.33,855.17 C 329.39,856.25 331.20,855.67 344.50,848.67 C 373.81,833.24 375.74,832.98 402.17,840.83 C 413.91,844.32 421.72,846.68 427.00,848.33 C 432.19,849.96 437.77,851.60 458.67,857.67 C 464.35,859.32 471.25,861.34 474.00,862.17 C 500.66,870.17 516.01,871.37 533.50,866.83 C 543.17,864.33 554.03,859.58 595.67,839.67 C 622.08,827.03 658.50,807.13 714.00,775.00 C 720.97,770.97 729.14,766.24 732.17,764.50 C 742.64,758.47 745.22,755.72 747.33,748.33 C 751.60,733.39 740.25,718.74 725.00,719.50 C 719.42,719.78 716.20,721.10 698.67,730.33 C 695.18,732.17 685.66,737.12 677.50,741.33 C 669.34,745.55 660.27,750.27 657.33,751.83 C 654.40,753.39 650.35,755.49 648.33,756.50 C 646.32,757.51 643.69,758.86 642.50,759.50 C 641.31,760.14 636.28,762.77 631.33,765.33 C 626.38,767.90 617.91,772.32 612.50,775.17 C 607.09,778.01 601.32,780.93 599.67,781.67 L 596.67,783.00 L 595.33,785.83 C 590.44,796.22 580.61,803.56 569.00,805.50 C 566.43,805.93 559.09,806.00 517.83,806.00 C 470.33,806.00 469.65,805.99 468.33,805.33 C 463.10,802.72 462.59,795.18 467.50,793.00 C 468.97,792.35 470.10,792.33 517.83,792.00 C 570.53,791.64 567.97,791.74 572.17,789.83 C 580.57,786.01 585.33,778.30 585.33,768.50 C 585.33,761.50 583.18,756.38 578.33,751.83 C 574.74,748.46 571.21,746.72 566.50,746.00 C 565.31,745.82 555.93,745.59 545.67,745.50 C 492.29,745.02 481.28,743.02 451.17,728.33 C 430.16,718.09 417.45,714.84 397.00,714.50 C 391.50,714.41 386.55,714.41 386.00,714.50"/>
		<path stroke="#F9BE44" d="M 465.67,659.67 L 466.67,660.83 C 474.49,669.97 490.49,677.93 503.83,679.33 C 513.11,680.31 524.20,679.16 532.67,676.33 C 554.82,668.95 571.25,649.49 575.17,626.00 C 575.94,621.33 575.85,609.35 575.00,604.67 C 573.45,596.15 568.69,584.67 564.50,579.33 L 562.67,577.00"/>
		<path stroke="#EE9F24" d="M 465.67,659.67 L 465.50,659.00 C 465.41,658.63 465.11,658.03 464.83,657.67 C 458.88,649.73 454.68,634.31 455.17,622.17 C 456.07,599.67 467.33,580.63 487.00,568.33 C 508.62,554.82 540.13,557.68 560.33,575.00 L 562.67,577.00"/>
		<path stroke="#E18C1C" d="M 465.67,659.67 L 463.33,657.17 C 450.82,643.76 445.24,621.96 449.33,602.50 C 455.89,571.37 484.80,549.57 516.33,552.00 C 533.58,553.33 548.92,560.91 559.83,573.50 L 562.00,576.00"/>
		<path stroke="#F9BE44" d="M 562.67,577.00 L 562.50,576.83 C 562.41,576.74 562.33,576.59 562.33,576.50 L 562.33,576.33"/>
		<path stroke="#F9BE44" d="M 562.33,576.33 L 562.33,576.17 C 562.33,576.07 562.26,576.00 562.17,576.00 L 562.00,576.00"/>
		<path stroke="#EE9F24" d="M 562.33,576.33 L 562.17,576.33 C 562.07,576.33 562.00,576.26 562.00,576.17 L 562.00,576.00"/>
		<path stroke="#EE9F24" d="M 511.67,590.33 C 511.67,593.00 508.20,601.51 505.83,604.67 C 502.75,608.77 497.70,611.88 489.83,614.50 L 486.33,615.67 L 490.83,617.33 C 501.06,621.12 504.84,624.13 508.17,631.17 C 508.99,632.91 510.12,635.98 510.67,638.00 C 511.79,642.13 511.46,642.29 513.33,636.67 C 516.99,625.69 522.52,620.34 533.67,617.00 C 535.50,616.45 537.00,615.85 537.00,615.67 C 537.00,615.48 535.80,614.96 534.33,614.50 C 521.44,610.47 516.76,605.79 512.67,592.83 C 512.12,591.09 511.67,589.97 511.67,590.33"/>
	</g>
	<path fill="#FEFEFE" d="M 636.00,257.67 L 636.17,257.50 C 636.26,257.41 636.63,256.51 637.00,255.50 L 637.67,253.67 L 638.33,251.83 C 644.50,234.88 645.01,217.77 639.83,201.67 C 631.85,176.82 611.39,159.20 585.83,155.17 C 581.52,154.49 568.48,154.49 564.17,155.17 C 549.87,157.42 535.46,165.25 525.17,176.33 C 520.22,181.66 512.33,194.05 512.33,196.50 C 512.33,197.79 511.53,196.68 510.17,193.50 C 509.34,191.58 507.84,188.72 506.83,187.17 C 495.20,169.19 478.97,158.29 459.17,155.17 C 454.85,154.49 441.81,154.49 437.50,155.17 C 420.67,157.82 404.52,167.68 394.33,181.50 C 376.96,205.08 375.99,234.10 391.50,266.17 C 406.29,296.73 441.89,333.69 487.67,366.00 C 505.70,378.73 506.79,379.33 511.83,379.33 C 515.75,379.33 517.56,378.52 525.83,373.00 C 560.30,350.02 592.64,321.53 612.67,296.50 C 622.58,284.11 631.94,268.83 635.33,259.50 L 636.00,257.67 M 386.67,306.50 C 383.46,307.70 380.88,311.86 381.17,315.33 C 381.53,319.72 388.09,328.85 392.17,330.67 C 399.22,333.80 406.70,327.34 404.50,320.00 C 403.22,315.73 396.30,307.13 393.50,306.33 C 391.78,305.84 388.18,305.93 386.67,306.50 M 614.50,325.67 C 611.69,326.79 605.25,333.03 604.00,335.83 C 600.49,343.74 607.18,351.24 615.17,348.33 C 617.47,347.50 624.58,340.61 625.67,338.17 C 628.38,332.06 624.10,325.33 617.50,325.33 C 616.31,325.33 614.96,325.48 614.50,325.67 M 414.17,339.33 C 408.94,341.42 406.79,346.58 409.17,351.33 C 410.67,354.34 420.62,363.83 430.83,372.00 C 449.15,386.66 459.82,398.34 467.50,412.17 C 471.31,419.02 473.37,420.67 478.17,420.67 C 483.65,420.67 486.97,416.95 486.50,411.33 C 485.98,405.10 471.23,383.82 460.17,373.33 C 456.64,369.99 451.18,365.26 447.67,362.50 C 443.07,358.89 436.30,353.13 429.83,347.33 C 421.01,339.43 421.02,339.43 417.33,339.17 C 416.05,339.08 414.63,339.15 414.17,339.33 M 585.33,354.67 C 581.24,356.71 557.57,379.34 551.50,387.00 C 529.25,415.11 518.34,443.93 514.67,484.33 C 513.65,495.50 514.70,499.20 519.50,501.33 C 524.20,503.42 530.23,500.82 531.50,496.17 C 531.78,495.16 532.07,492.83 532.17,491.00 C 534.08,452.77 545.92,420.68 567.17,396.17 C 572.01,390.58 580.44,382.29 587.17,376.50 C 598.08,367.11 598.00,367.21 598.00,362.33 C 598.00,356.56 595.11,353.67 589.33,353.67 C 587.78,353.67 586.89,353.89 585.33,354.67 M 594.67,394.50 C 587.74,396.23 569.43,416.80 563.50,429.50 C 561.32,434.17 561.94,438.11 565.33,441.17 C 568.66,444.16 573.67,444.16 577.00,441.17 C 578.24,440.05 579.26,438.57 581.00,435.33 C 585.98,426.09 589.93,421.31 601.00,411.17 C 606.04,406.54 606.69,401.02 602.67,397.00 C 600.50,394.83 597.32,393.84 594.67,394.50 M 516.17,394.83 C 512.70,395.53 510.37,397.86 507.83,403.17 C 505.10,408.89 505.28,412.28 508.50,415.50 C 511.92,418.92 517.96,418.92 521.00,415.50 C 523.88,412.26 526.33,406.97 526.33,404.00 C 526.33,398.54 521.13,393.84 516.17,394.83 M 428.50,396.00 C 423.46,398.02 420.91,403.80 423.00,408.50 C 423.88,410.49 429.79,416.39 432.00,417.50 C 436.39,419.69 441.68,417.98 443.83,413.67 C 444.92,411.49 445.00,407.75 444.00,405.50 C 443.11,403.50 437.17,397.56 435.17,396.67 C 433.43,395.89 429.70,395.52 428.50,396.00 M 491.67,428.33 C 487.40,429.75 484.95,434.80 486.17,439.67 C 486.94,442.76 489.55,448.53 490.83,450.00 C 496.47,456.44 506.67,453.12 506.67,444.83 C 506.67,439.19 501.56,429.74 497.83,428.50 C 496.12,427.93 493.12,427.85 491.67,428.33 M 465.50,449.67 C 458.94,452.29 458.04,458.15 462.67,468.17 C 464.98,473.17 469.59,475.03 474.67,473.00 C 479.00,471.27 480.82,466.85 479.33,461.67 C 476.80,452.79 473.81,449.33 468.67,449.33 C 467.38,449.33 465.96,449.48 465.50,449.67 M 555.67,458.33 C 551.35,459.77 548.18,465.85 547.50,474.00 C 546.84,481.86 554.96,486.69 561.50,482.33 C 563.45,481.03 564.36,479.17 565.83,473.50 C 567.63,466.57 567.40,464.02 564.67,460.83 C 562.81,458.67 558.37,457.43 555.67,458.33 M 488.83,493.33 C 482.90,495.70 481.25,500.61 483.17,510.17 C 484.28,515.75 487.08,518.33 492.00,518.33 C 495.47,518.33 498.57,516.52 500.00,513.67 C 501.18,511.30 500.76,501.71 499.33,498.50 C 497.84,495.14 495.46,493.45 491.83,493.17 C 490.64,493.07 489.29,493.15 488.83,493.33 M 549.17,501.83 C 544.60,503.79 542.67,508.45 543.17,516.33 C 543.54,522.31 546.95,525.54 552.50,525.17 C 556.39,524.91 559.23,523.13 560.50,520.17 C 561.32,518.24 561.20,508.46 560.33,506.50 C 558.58,502.56 552.95,500.21 549.17,501.83 M 537.53,538.05 C 580.46,552.17 603.80,598.45 589.66,641.43 C 575.53,684.41 529.27,707.80 486.34,693.68 C 443.42,679.56 420.08,633.28 434.21,590.30 C 448.35,547.33 494.61,523.93 537.53,538.05 M 620.67,696.50 C 614.54,698.03 612.25,699.18 596.17,708.83 C 589.29,712.96 578.12,719.56 571.33,723.50 C 564.55,727.44 559.00,730.82 559.00,731.00 C 559.00,731.20 560.61,731.33 563.17,731.33 C 570.07,731.33 575.85,732.98 581.83,736.67 L 584.00,738.00 L 594.50,732.00 C 625.82,714.11 641.70,704.96 642.00,704.67 C 642.95,703.72 637.52,699.46 633.50,698.00 C 629.55,696.56 623.33,695.84 620.67,696.50 M 676.17,702.67 C 670.37,703.72 664.77,706.68 630.67,726.67 C 625.35,729.78 617.03,734.58 612.17,737.33 C 607.31,740.08 601.31,743.53 598.83,745.00 C 596.36,746.47 594.18,747.74 594.00,747.83 C 593.81,747.93 594.18,748.88 594.83,750.00 C 597.31,754.25 599.17,759.69 599.50,763.67 C 599.59,764.77 599.74,765.67 599.83,765.67 C 600.07,765.67 612.71,759.18 625.17,752.67 C 631.13,749.55 642.68,743.55 650.83,739.33 C 658.99,735.12 667.62,730.62 670.00,729.33 C 672.38,728.05 678.23,724.98 683.00,722.50 C 687.77,720.02 693.54,717.02 695.83,715.83 L 700.00,713.67 L 699.33,712.33 C 696.05,705.78 684.83,701.09 676.17,702.67 M 386.00,714.50 C 385.45,714.59 383.13,714.89 380.83,715.17 C 367.38,716.78 352.25,721.82 339.33,729.00 C 337.68,729.92 331.76,733.22 326.17,736.33 C 320.58,739.45 313.83,743.20 311.17,744.67 C 308.51,746.13 303.11,749.13 299.17,751.33 C 295.22,753.53 289.90,756.46 287.33,757.83 C 278.53,762.55 274.91,768.35 276.00,776.00 C 276.56,779.93 277.25,781.53 282.00,789.83 C 284.25,793.77 287.47,799.68 290.17,804.83 C 291.17,806.76 294.47,812.83 297.50,818.33 C 300.53,823.83 305.40,832.83 308.33,838.33 C 315.43,851.64 317.36,853.67 324.33,855.17 C 329.39,856.25 331.20,855.67 344.50,848.67 C 373.81,833.24 375.74,832.98 402.17,840.83 C 413.91,844.32 421.72,846.68 427.00,848.33 C 432.19,849.96 437.77,851.60 458.67,857.67 C 464.35,859.32 471.25,861.34 474.00,862.17 C 500.66,870.17 516.01,871.37 533.50,866.83 C 543.17,864.33 554.03,859.58 595.67,839.67 C 622.08,827.03 658.50,807.13 714.00,775.00 C 720.97,770.97 729.14,766.24 732.17,764.50 C 742.64,758.47 745.22,755.72 747.33,748.33 C 751.60,733.39 740.25,718.74 725.00,719.50 C 719.42,719.78 716.20,721.10 698.67,730.33 C 695.18,732.17 685.66,737.12 677.50,741.33 C 669.34,745.55 660.27,750.27 657.33,751.83 C 654.40,753.39 650.35,755.49 648.33,756.50 C 646.32,757.51 643.69,758.86 642.50,759.50 C 641.31,760.14 636.28,762.77 631.33,765.33 C 626.38,767.90 617.91,772.32 612.50,775.17 C 607.09,778.01 601.32,780.93 599.67,781.67 L 596.67,783.00 L 595.33,785.83 C 590.44,796.22 580.61,803.56 569.00,805.50 C 566.43,805.93 559.09,806.00 517.83,806.00 C 470.33,806.00 469.65,805.99 468.33,805.33 C 463.10,802.72 462.59,795.18 467.50,793.00 C 468.97,792.35 470.10,792.33 517.83,792.00 C 570.53,791.64 567.97,791.74 572.17,789.83 C 580.57,786.01 585.33,778.30 585.33,768.50 C 585.33,761.50 583.18,756.38 578.33,751.83 C 574.74,748.46 571.21,746.72 566.50,746.00 C 565.31,745.82 555.93,745.59 545.67,745.50 C 492.29,745.02 481.28,743.02 451.17,728.33 C 430.16,718.09 417.45,714.84 397.00,714.50 C 391.50,714.41 386.55,714.41 386.00,714.50" fill-rule="evenodd"/>
	<path fill="#E9474D" d="M 637.67,253.67 L 637.17,252.83 C 636.89,252.37 636.44,251.92 636.17,251.83 C 634.49,251.27 633.87,255.00 635.33,256.83 L 636.00,257.67 L 635.33,259.50 C 631.94,268.83 622.58,284.11 612.67,296.50 C 592.64,321.53 560.30,350.02 525.83,373.00 C 517.56,378.52 515.75,379.33 511.83,379.33 C 506.79,379.33 505.70,378.73 487.67,366.00 C 441.89,333.69 406.29,296.73 391.50,266.17 C 375.99,234.10 376.96,205.08 394.33,181.50 C 404.52,167.68 420.67,157.82 437.50,155.17 C 441.81,154.49 454.85,154.49 459.17,155.17 C 478.97,158.29 495.20,169.19 506.83,187.17 C 507.84,188.72 509.34,191.58 510.17,193.50 C 511.53,196.68 512.33,197.79 512.33,196.50 C 512.33,194.05 520.22,181.66 525.17,176.33 C 535.46,165.25 549.87,157.42 564.17,155.17 C 568.48,154.49 581.52,154.49 585.83,155.17 C 611.39,159.20 631.85,176.82 639.83,201.67 C 645.01,217.77 644.50,234.88 638.33,251.83 L 637.67,253.67" fill-rule="evenodd"/>
	<path fill="#E65754" d="M 637.67,253.67 L 637.00,255.50 C 636.63,256.51 636.26,257.41 636.17,257.50 L 636.00,257.67 L 635.33,256.83 C 633.87,255.00 634.49,251.27 636.17,251.83 C 636.44,251.92 636.89,252.37 637.17,252.83 L 637.67,253.67" fill-rule="evenodd"/>
	<path fill="#E6454B" d="M 386.67,306.50 C 388.18,305.93 391.78,305.84 393.50,306.33 C 396.30,307.13 403.22,315.73 404.50,320.00 C 406.70,327.34 399.22,333.80 392.17,330.67 C 388.09,328.85 381.53,319.72 381.17,315.33 C 380.88,311.86 383.46,307.70 386.67,306.50" fill-rule="evenodd"/>
	<path fill="#E7464B" d="M 614.50,325.67 C 614.96,325.48 616.31,325.33 617.50,325.33 C 624.10,325.33 628.38,332.06 625.67,338.17 C 624.58,340.61 617.47,347.50 615.17,348.33 C 607.18,351.24 600.49,343.74 604.00,335.83 C 605.25,333.03 611.69,326.79 614.50,325.67" fill-rule="evenodd"/>
	<path fill="#E8464B" d="M 414.17,339.33 C 414.63,339.15 416.05,339.08 417.33,339.17 C 421.02,339.43 421.01,339.43 429.83,347.33 C 436.30,353.13 443.07,358.89 447.67,362.50 C 451.18,365.26 456.64,369.99 460.17,373.33 C 471.23,383.82 485.98,405.10 486.50,411.33 C 486.97,416.95 483.65,420.67 478.17,420.67 C 473.37,420.67 471.31,419.02 467.50,412.17 C 459.82,398.34 449.15,386.66 430.83,372.00 C 420.62,363.83 410.67,354.34 409.17,351.33 C 406.79,346.58 408.94,341.42 414.17,339.33" fill-rule="evenodd"/>
	<path fill="#E84449" d="M 585.33,354.67 C 586.89,353.89 587.78,353.67 589.33,353.67 C 595.11,353.67 598.00,356.56 598.00,362.33 C 598.00,367.21 598.08,367.11 587.17,376.50 C 580.44,382.29 572.01,390.58 567.17,396.17 C 545.92,420.68 534.08,452.77 532.17,491.00 C 532.07,492.83 531.78,495.16 531.50,496.17 C 530.23,500.82 524.20,503.42 519.50,501.33 C 514.70,499.20 513.65,495.50 514.67,484.33 C 518.34,443.93 529.25,415.11 551.50,387.00 C 557.57,379.34 581.24,356.71 585.33,354.67" fill-rule="evenodd"/>
	<path fill="#E7444A" d="M 594.67,394.50 C 597.32,393.84 600.50,394.83 602.67,397.00 C 606.69,401.02 606.04,406.54 601.00,411.17 C 589.93,421.31 585.98,426.09 581.00,435.33 C 579.26,438.57 578.24,440.05 577.00,441.17 C 573.67,444.16 568.66,444.16 565.33,441.17 C 561.94,438.11 561.32,434.17 563.50,429.50 C 569.43,416.80 587.74,396.23 594.67,394.50" fill-rule="evenodd"/>
	<path fill="#E6464B" d="M 516.17,394.83 C 521.13,393.84 526.33,398.54 526.33,404.00 C 526.33,406.97 523.88,412.26 521.00,415.50 C 517.96,418.92 511.92,418.92 508.50,415.50 C 505.28,412.28 505.10,408.89 507.83,403.17 C 510.37,397.86 512.70,395.53 516.17,394.83" fill-rule="evenodd"/>
	<path fill="#E4464C" d="M 428.50,396.00 C 429.70,395.52 433.43,395.89 435.17,396.67 C 437.17,397.56 443.11,403.50 444.00,405.50 C 445.00,407.75 444.92,411.49 443.83,413.67 C 441.68,417.98 436.39,419.69 432.00,417.50 C 429.79,416.39 423.88,410.49 423.00,408.50 C 420.91,403.80 423.46,398.02 428.50,396.00" fill-rule="evenodd"/>
	<path fill="#E6444A" d="M 491.67,428.33 C 493.12,427.85 496.12,427.93 497.83,428.50 C 501.56,429.74 506.67,439.19 506.67,444.83 C 506.67,453.12 496.47,456.44 490.83,450.00 C 489.55,448.53 486.94,442.76 486.17,439.67 C 484.95,434.80 487.40,429.75 491.67,428.33" fill-rule="evenodd"/>
	<path fill="#E64549" d="M 465.50,449.67 C 465.96,449.48 467.38,449.33 468.67,449.33 C 473.81,449.33 476.80,452.79 479.33,461.67 C 480.82,466.85 479.00,471.27 474.67,473.00 C 469.59,475.03 464.98,473.17 462.67,468.17 C 458.04,458.15 458.94,452.29 465.50,449.67" fill-rule="evenodd"/>
	<path fill="#E7454A" d="M 555.67,458.33 C 558.37,457.43 562.81,458.67 564.67,460.83 C 567.40,464.02 567.63,466.57 565.83,473.50 C 564.36,479.17 563.45,481.03 561.50,482.33 C 554.96,486.69 546.84,481.86 547.50,474.00 C 548.18,465.85 551.35,459.77 555.67,458.33" fill-rule="evenodd"/>
	<path fill="#E64549" d="M 488.83,493.33 C 489.29,493.15 490.64,493.07 491.83,493.17 C 495.46,493.45 497.84,495.14 499.33,498.50 C 500.76,501.71 501.18,511.30 500.00,513.67 C 498.57,516.52 495.47,518.33 492.00,518.33 C 487.08,518.33 484.28,515.75 483.17,510.17 C 481.25,500.61 482.90,495.70 488.83,493.33" fill-rule="evenodd"/>
	<path fill="#EA464B" d="M 549.17,501.83 C 552.95,500.21 558.58,502.56 560.33,506.50 C 561.20,508.46 561.32,518.24 560.50,520.17 C 559.23,523.13 556.39,524.91 552.50,525.17 C 546.95,525.54 543.54,522.31 543.17,516.33 C 542.67,508.45 544.60,503.79 549.17,501.83" fill-rule="evenodd"/>
	<path fill="#F9BE44" d="M 537.53,538.05 C 494.61,523.93 448.35,547.33 434.21,590.30 C 420.08,633.28 443.42,679.56 486.34,693.68 C 529.27,707.80 575.53,684.41 589.66,641.43 C 603.80,598.45 580.46,552.17 537.53,538.05 M 465.67,659.67 L 466.67,660.83 C 474.49,669.97 490.49,677.93 503.83,679.33 C 513.11,680.31 524.20,679.16 532.67,676.33 C 554.82,668.95 571.25,649.49 575.17,626.00 C 575.94,621.33 575.85,609.35 575.00,604.67 C 573.45,596.15 568.69,584.67 564.50,579.33 L 562.67,577.00 L 562.50,576.83 C 562.41,576.74 562.33,576.59 562.33,576.50 L 562.33,576.33 L 562.33,576.17 C 562.33,576.07 562.26,576.00 562.17,576.00 L 562.00,576.00 L 559.83,573.50 C 548.92,560.91 533.58,553.33 516.33,552.00 C 484.80,549.57 455.89,571.37 449.33,602.50 C 445.24,621.96 450.82,643.76 463.33,657.17 L 465.67,659.67" fill-rule="evenodd"/>
	<path fill="#E18C1C" d="M 562.00,576.00 L 562.00,576.17 C 562.00,576.26 562.07,576.33 562.17,576.33 L 562.33,576.33 L 562.33,576.50 C 562.33,576.59 562.41,576.74 562.50,576.83 L 562.67,577.00 L 560.33,575.00 C 540.13,557.68 508.62,554.82 487.00,568.33 C 467.33,580.63 456.07,599.67 455.17,622.17 C 454.68,634.31 458.88,649.73 464.83,657.67 C 465.11,658.03 465.41,658.63 465.50,659.00 L 465.67,659.67 L 463.33,657.17 C 450.82,643.76 445.24,621.96 449.33,602.50 C 455.89,571.37 484.80,549.57 516.33,552.00 C 533.58,553.33 548.92,560.91 559.83,573.50 L 562.00,576.00" fill-rule="evenodd"/>
	<path fill="#EE9F24" d="M 562.67,577.00 L 564.50,579.33 C 568.69,584.67 573.45,596.15 575.00,604.67 C 575.85,609.35 575.94,621.33 575.17,626.00 C 571.25,649.49 554.82,668.95 532.67,676.33 C 524.20,679.16 513.11,680.31 503.83,679.33 C 490.49,677.93 474.49,669.97 466.67,660.83 L 465.67,659.67 L 465.50,659.00 C 465.41,658.63 465.11,658.03 464.83,657.67 C 458.88,649.73 454.68,634.31 455.17,622.17 C 456.07,599.67 467.33,580.63 487.00,568.33 C 508.62,554.82 540.13,557.68 560.33,575.00 L 562.67,577.00 M 511.67,590.33 C 511.67,593.00 508.20,601.51 505.83,604.67 C 502.75,608.77 497.70,611.88 489.83,614.50 L 486.33,615.67 L 490.83,617.33 C 501.06,621.12 504.84,624.13 508.17,631.17 C 508.99,632.91 510.12,635.98 510.67,638.00 C 511.79,642.13 511.46,642.29 513.33,636.67 C 516.99,625.69 522.52,620.34 533.67,617.00 C 535.50,616.45 537.00,615.85 537.00,615.67 C 537.00,615.48 535.80,614.96 534.33,614.50 C 521.44,610.47 516.76,605.79 512.67,592.83 C 512.12,591.09 511.67,589.97 511.67,590.33" fill-rule="evenodd"/>
	<path fill="#EE9F24" d="M 562.00,576.00 L 562.17,576.00 C 562.26,576.00 562.33,576.07 562.33,576.17 L 562.33,576.33 L 562.17,576.33 C 562.07,576.33 562.00,576.26 562.00,576.17 L 562.00,576.00" fill-rule="evenodd"/>
	<path fill="#FBC145" d="M 511.67,590.33 C 511.67,589.97 512.12,591.09 512.67,592.83 C 516.76,605.79 521.44,610.47 534.33,614.50 C 535.80,614.96 537.00,615.48 537.00,615.67 C 537.00,615.85 535.50,616.45 533.67,617.00 C 522.52,620.34 516.99,625.69 513.33,636.67 C 511.46,642.29 511.79,642.13 510.67,638.00 C 510.12,635.98 508.99,632.91 508.17,631.17 C 504.84,624.13 501.06,621.12 490.83,617.33 L 486.33,615.67 L 489.83,614.50 C 497.70,611.88 502.75,608.77 505.83,604.67 C 508.20,601.51 511.67,593.00 511.67,590.33" fill-rule="evenodd"/>
	<path fill="#E6B17F" d="M 620.67,696.50 C 623.33,695.84 629.55,696.56 633.50,698.00 C 637.52,699.46 642.95,703.72 642.00,704.67 C 641.70,704.96 625.82,714.11 594.50,732.00 L 584.00,738.00 L 581.83,736.67 C 575.85,732.98 570.07,731.33 563.17,731.33 C 560.61,731.33 559.00,731.20 559.00,731.00 C 559.00,730.82 564.55,727.44 571.33,723.50 C 578.12,719.56 589.29,712.96 596.17,708.83 C 612.25,699.18 614.54,698.03 620.67,696.50" fill-rule="evenodd"/>
	<path fill="#E6B180" d="M 676.17,702.67 C 684.83,701.09 696.05,705.78 699.33,712.33 L 700.00,713.67 L 695.83,715.83 C 693.54,717.02 687.77,720.02 683.00,722.50 C 678.23,724.98 672.38,728.05 670.00,729.33 C 667.62,730.62 658.99,735.12 650.83,739.33 C 642.68,743.55 631.13,749.55 625.17,752.67 C 612.71,759.18 600.07,765.67 599.83,765.67 C 599.74,765.67 599.59,764.77 599.50,763.67 C 599.17,759.69 597.31,754.25 594.83,750.00 C 594.18,748.88 593.81,747.93 594.00,747.83 C 594.18,747.74 596.36,746.47 598.83,745.00 C 601.31,743.53 607.31,740.08 612.17,737.33 C 617.03,734.58 625.35,729.78 630.67,726.67 C 664.77,706.68 670.37,703.72 676.17,702.67" fill-rule="evenodd"/>
	<path fill="#E7B282" d="M 386.00,714.50 C 386.55,714.41 391.50,714.41 397.00,714.50 C 417.45,714.84 430.16,718.09 451.17,728.33 C 481.28,743.02 492.29,745.02 545.67,745.50 C 555.93,745.59 565.31,745.82 566.50,746.00 C 571.21,746.72 574.74,748.46 578.33,751.83 C 583.18,756.38 585.33,761.50 585.33,768.50 C 585.33,778.30 580.57,786.01 572.17,789.83 C 567.97,791.74 570.53,791.64 517.83,792.00 C 470.10,792.33 468.97,792.35 467.50,793.00 C 462.59,795.18 463.10,802.72 468.33,805.33 C 469.65,805.99 470.33,806.00 517.83,806.00 C 559.09,806.00 566.43,805.93 569.00,805.50 C 580.61,803.56 590.44,796.22 595.33,785.83 L 596.67,783.00 L 599.67,781.67 C 601.32,780.93 607.09,778.01 612.50,775.17 C 617.91,772.32 626.38,767.90 631.33,765.33 C 636.28,762.77 641.31,760.14 642.50,759.50 C 643.69,758.86 646.32,757.51 648.33,756.50 C 650.35,755.49 654.40,753.39 657.33,751.83 C 660.27,750.27 669.34,745.55 677.50,741.33 C 685.66,737.12 695.18,732.17 698.67,730.33 C 716.20,721.10 719.42,719.78 725.00,719.50 C 740.25,718.74 751.60,733.39 747.33,748.33 C 745.22,755.72 742.64,758.47 732.17,764.50 C 729.14,766.24 720.97,770.97 714.00,775.00 C 658.50,807.13 622.08,827.03 595.67,839.67 C 554.03,859.58 543.17,864.33 533.50,866.83 C 516.01,871.37 500.66,870.17 474.00,862.17 C 471.25,861.34 464.35,859.32 458.67,857.67 C 437.77,851.60 432.19,849.96 427.00,848.33 C 421.72,846.68 413.91,844.32 402.17,840.83 C 375.74,832.98 373.81,833.24 344.50,848.67 C 331.20,855.67 329.39,856.25 324.33,855.17 C 317.36,853.67 315.43,851.64 308.33,838.33 C 305.40,832.83 300.53,823.83 297.50,818.33 C 294.47,812.83 291.17,806.76 290.17,804.83 C 287.47,799.68 284.25,793.77 282.00,789.83 C 277.25,781.53 276.56,779.93 276.00,776.00 C 274.91,768.35 278.53,762.55 287.33,757.83 C 289.90,756.46 295.22,753.53 299.17,751.33 C 303.11,749.13 308.51,746.13 311.17,744.67 C 313.83,743.20 320.58,739.45 326.17,736.33 C 331.76,733.22 337.68,729.92 339.33,729.00 C 352.25,721.82 367.38,716.78 380.83,715.17 C 383.13,714.89 385.45,714.59 386.00,714.50" fill-rule="evenodd"/>
</svg>
